<svg width="1024" height="1024" viewBox="0 0 1024 1024" fill="none" xmlns="http://www.w3.org/2000/svg">
  <defs>
    <radialGradient id="bg" cx="50%" cy="46%" r="66%">
      <stop offset="0" stop-color="#303232"/>
      <stop offset="1" stop-color="#1f2121"/>
    </radialGradient>
    <linearGradient id="mark" x1="284" y1="487" x2="728" y2="267" gradientUnits="userSpaceOnUse">
      <stop offset="0" stop-color="#148BFF"/>
      <stop offset="0.48" stop-color="#08B8F0"/>
      <stop offset="1" stop-color="#12F59A"/>
    </linearGradient>
    <linearGradient id="mark2" x1="597" y1="441" x2="788" y2="563" gradientUnits="userSpaceOnUse">
      <stop offset="0" stop-color="#13F49B"/>
      <stop offset="1" stop-color="#17E59B"/>
    </linearGradient>
    <filter id="softShadow" x="250" y="120" width="560" height="510" filterUnits="userSpaceOnUse" color-interpolation-filters="sRGB">
      <feDropShadow dx="0" dy="8" stdDeviation="10" flood-color="#000" flood-opacity="0.25"/>
    </filter>
  </defs>
  <rect width="1024" height="1024" fill="url(#bg)"/>
  <g filter="url(#softShadow)">
    <path d="M282 600H360L390 584C417 570 433 554 433 533V316L598 234V521C598 542 609 557 627 568L698 611H782L638 525V186C638 171 623 162 610 169L405 272C394 277 388 289 388 301V533L282 600Z" fill="#0E1315" opacity="0.45"/>
    <path d="M282 600H360L390 584C417 570 433 554 433 533V316L598 234V521C598 542 609 557 627 568L698 611H782L638 525V186C638 171 623 162 610 169L405 272C394 277 388 289 388 301V533L282 600Z" fill="url(#mark)"/>
    <path d="M598 234V521C598 542 609 557 627 568L698 611H782L638 525V186C638 171 623 162 610 169L598 175V234Z" fill="url(#mark2)"/>
  </g>
  <text x="512" y="770" text-anchor="middle" font-family="Inter, Arial, Helvetica, sans-serif" font-size="142" font-weight="900" letter-spacing="7" fill="#555858" stroke="#121414" stroke-width="2">OSRBOT</text>
</svg>
